PathFileType	4	(X/Y/Z)	C:\Users\u0145647\OneDrive - KU Leuven\KU Leuven\c3d2osim\CP4\T0\Data\Processed\ViconC3D_CP4_2\CP4_T0_12_gapFilled.trc
DataRate	CameraRate	NumFrames	NumMarkers	Units	OrigDataRate	OrigDataStartFrame	OrigNumFrames
100.000000	100.000000	8	47	mm	100.000000	65	516
Frame#	Time	C7			T10			CLAV			STRN			LSHO			RSHO			RBAK			LASI			RASI			LPSI			RPSI			LLAT			RLAT			LF1			LF2			LF3			LTHI			LKNE			LMEK			RF1			RF2			RF3			RTHI			RKNE			RMEK			LT1			LT2			LT3			LTIB			LANK			LMM			RT1			RT2			RT3			RTIB			RANK			RMM			LHEE			LSTL			LLCA			LTOE			LCM5			RHEE			RSTL			RLCA			RTOE			RCM5
		X1	Y1	Z1	X2	Y2	Z2	X3	Y3	Z3	X4	Y4	Z4	X5	Y5	Z5	X6	Y6	Z6	X7	Y7	Z7	X8	Y8	Z8	X9	Y9	Z9	X10	Y10	Z10	X11	Y11	Z11	X12	Y12	Z12	X13	Y13	Z13	X14	Y14	Z14	X15	Y15	Z15	X16	Y16	Z16	X17	Y17	Z17	X18	Y18	Z18	X19	Y19	Z19	X20	Y20	Z20	X21	Y21	Z21	X22	Y22	Z22	X23	Y23	Z23	X24	Y24	Z24	X25	Y25	Z25	X26	Y26	Z26	X27	Y27	Z27	X28	Y28	Z28	X29	Y29	Z29	X30	Y30	Z30	X31	Y31	Z31	X32	Y32	Z32	X33	Y33	Z33	X34	Y34	Z34	X35	Y35	Z35	X36	Y36	Z36	X37	Y37	Z37	X38	Y38	Z38	X39	Y39	Z39	X40	Y40	Z40	X41	Y41	Z41	X42	Y42	Z42	X43	Y43	Z43	X44	Y44	Z44	X45	Y45	Z45	X46	Y46	Z46	X47	Y47	Z47

65	0.64	2630.4	1422.1	-157.17	2684.7	1171.6	-115.42	NaN	NaN	NaN	NaN	NaN	NaN	2579.9	1404.2	64.991	2576.1	1350.4	-339.97	2665.2	1325.6	-271.45	2562.8	890.23	-34.869	2578.3	908.1	-232.14	2727.7	963.01	-78.635	2732	979.07	-151.42	2607.6	967.73	25.354	2620.6	991.2	-268.44	2548.4	654.08	31.633	2576.4	691.12	30.984	2580.2	640.32	36.275	NaN	NaN	NaN	2503	453.27	9.9083	NaN	NaN	NaN	2675.2	643.09	-273.19	2648.9	672.41	-275.32	2709.1	681.89	-279.25	2673.7	576.79	-303.09	2671.4	459.15	-217.82	NaN	NaN	NaN	2640.2	339.41	30.09	2580.9	343.26	17.219	2618.5	378.88	27.848	NaN	NaN	NaN	2795.9	157.04	3.0177	2774.4	161.17	-82.038	2726.3	318.77	-242.68	2697.3	354.88	-220.39	2738	370.46	-249.85	2718.7	242.75	-277.31	2805.6	84.065	-228.26	2813.7	100.58	-142.51	2844.9	170.46	-43.799	2792	137.09	-79.497	2806.1	132.12	-2.0866	2705.2	68.028	-40.597	2720.3	58.418	0.61861	2864.9	86.373	-202.13	2819.8	64.21	-146.89	2803.3	58.742	-223.5	2691.9	52.068	-167.08	2705.4	37.898	-225.16
66	0.65	2616.7	1421.6	-157.3	2672.1	1171.2	-115.13	NaN	NaN	NaN	NaN	NaN	NaN	2568.8	1403.1	65.481	2561.1	1349.5	-339.41	2651	1325.3	-271.99	2548.8	889.89	-35.213	2566.5	908.84	-233.48	2714.4	962.05	-77.348	2719.5	978.23	-150	2595	966.5	25.364	2609.4	990.82	-268.11	2524.8	657.23	31.466	2557.3	693.89	32.469	2558.9	642.67	37.085	NaN	NaN	NaN	2473.5	460.29	9.661	NaN	NaN	NaN	2666.2	642.85	-272.94	2639.5	671.87	-274.92	2699.4	681.89	-278.79	2665.3	576.64	-302.86	2665	458.54	-218.02	NaN	NaN	NaN	2605.8	340.61	29.445	2546.7	346.8	17.777	2585.8	380.77	26.146	NaN	NaN	NaN	2750.4	149.16	3.599	2727.3	152.17	-81.937	2721.9	318.91	-242.88	2692.4	354.97	-221.04	2732.6	370.59	-249.94	2715.1	242.8	-277.26	2804.8	85.386	-228.78	2812.6	102.12	-142.94	2798.7	157.82	-44.875	2744.1	127.42	-79.208	2758	123.06	-1.5174	2652.9	65.991	-36.261	2668.1	56.136	4.6345	2863.9	88.599	-202.67	2819	65.588	-147.28	2802.6	60.038	-224.02	2691.5	51.909	-167.33	2705.1	37.899	-225.54
67	0.66	2603.1	1420.9	-157.29	2659.5	1170.5	-114.7	NaN	NaN	NaN	NaN	NaN	NaN	2557.5	1401.7	66.11	2546.1	1348.2	-338.78	2636.9	1324.6	-272.36	2534.1	889.13	-36.073	2554.7	907.93	-233.28	2701.1	960.71	-75.933	2707	977.01	-148.41	2581	965.06	25.169	2598.5	990.14	-267.67	2505.5	661.15	33.164	2537.3	695.84	33.195	2537.6	645.01	37.896	NaN	NaN	NaN	2444.5	467.13	9.4211	NaN	NaN	NaN	2657.2	642.36	-272.43	2630.2	671.05	-274.47	2689.9	681.66	-278.08	2656.9	576.14	-302.35	2658.1	457.87	-217.65	NaN	NaN	NaN	2570.9	341.05	28.724	2511.4	350.53	17.866	2553.1	381.82	24.497	NaN	NaN	NaN	2702.4	140.22	3.1934	2680.1	143.85	-81.434	2717	318.83	-242.41	2687	354.76	-220.76	2727	370.72	-249.74	2711.9	242.82	-277.38	2803.9	87.026	-229.34	2811.6	103.57	-143.42	2751.3	145.29	-45.883	2694.5	117.99	-79.393	2708.7	113.73	-1.9632	2599.5	63.427	-34.718	2614.8	53.605	6.6829	2862.8	90.615	-202.95	2818.3	67.118	-147.66	2802	61.305	-224.61	2691.1	51.953	-167.49	2704.8	37.82	-225.55
68	0.67	2589.2	1420	-157.21	2646.8	1169.6	-114.13	NaN	NaN	NaN	NaN	NaN	NaN	2546	1399.9	66.931	2531.3	1346.7	-338.11	2622.8	1323.7	-272.56	2520.3	888.09	-36.716	2543	907.26	-234.41	2687.7	959.04	-74.347	2694.4	975.58	-146.59	2568.4	963.41	25.473	2586.4	988.98	-267.15	2486.1	664.89	33.483	2518.8	698.75	34.351	2516.3	647.35	38.706	NaN	NaN	NaN	2416.7	474.04	9.1914	NaN	NaN	NaN	2648.1	641.51	-271.77	2620.9	670.02	-274.21	2680.5	681.25	-277.16	2648.7	575.61	-302.01	2651.1	457	-217.28	NaN	NaN	NaN	2535.3	340.53	28.254	2475	354.64	17.4	2520.1	382.83	23.853	NaN	NaN	NaN	2653.8	131.64	2.7497	2631.2	135.61	-82.66	2712.4	319.12	-242.35	2681.5	353.93	-220.79	2721.6	371.28	-249.54	2708.4	242.9	-277.22	2802.8	88.312	-229.66	2810.5	105.16	-143.61	2702.7	133.1	-46.587	2644.2	109.02	-79.71	2658.5	104.88	-2.3075	2546.1	60.864	-33.176	2560.7	51.968	7.5387	2861.7	93.105	-203.24	2817.5	68.649	-148.04	2801.1	62.539	-224.47	2690.7	52	-167.64	2704.5	37.758	-225.56
69	0.68	2575.3	1419.1	-156.98	2633.9	1168.5	-113.44	NaN	NaN	NaN	NaN	NaN	NaN	2534.4	1397.9	67.911	2516.7	1344.9	-337.47	2608.8	1322.6	-272.56	2506.4	887.05	-37.358	2530.9	906.49	-235.32	2674	957.13	-72.693	2681.6	973.96	-144.76	2550.4	962.09	26.642	2576.5	988.12	-267.11	2466.5	668.74	33.88	2500.1	701.09	35.311	2495	649.7	39.516	NaN	NaN	NaN	2389.6	480.47	8.9456	NaN	NaN	NaN	2639.2	640.7	-271.09	2611.8	668.79	-273.76	2671.3	680.66	-276.09	2640.3	574.69	-301.51	2643.7	455.83	-216.72	NaN	NaN	NaN	2499.2	339.28	28.031	2438.6	358.76	16.935	2487	382.3	23.989	2472.4	252.15	51.165	2603.6	122.83	1.8637	2581.4	128.61	-82.713	2707.7	319.28	-242.33	2676	353.67	-220.31	2715.7	371.47	-249.22	2704.7	242.98	-277	2801.7	89.893	-229.87	2809.4	106.9	-143.75	2653.1	121.5	-47.155	2593.5	101.19	-80.85	2606.8	96.287	-3.0867	2492.2	59.873	-35.555	2505.7	50.431	6.7563	2860.6	95.417	-203.48	2817.5	70.734	-148.22	2800.5	64.199	-224.66	2690.2	52.034	-167.67	2704.3	37.771	-225.57
70	0.69	2561.2	1417.9	-156.55	2620.8	1167.2	-112.63	NaN	NaN	NaN	NaN	NaN	NaN	2522.7	1395.6	68.945	2502.1	1342.9	-336.82	2594.9	1321.4	-272.41	2491.7	886.32	-38.362	2518.6	905.23	-236.21	2660	955.1	-71.006	2668.5	972.17	-142.83	2532.5	960.76	27.811	2565.4	987.09	-266.92	2447.3	672.08	34.262	2480.9	703.3	36.165	2475.8	652.16	39.485	NaN	NaN	NaN	2363.7	486.75	8.851	NaN	NaN	NaN	2630.1	639.61	-270.18	2602.5	667.54	-273.29	2662	679.96	-274.98	2632.1	573.79	-300.9	2636.5	454.78	-216.32	NaN	NaN	NaN	2463	337.71	28.12	2405.4	360.22	16.181	2453.3	381.8	24.124	2429.8	252.3	49.813	2553.7	115.41	1.1704	2532.7	122.81	-84.741	2702.2	318.97	-241.43	2670.4	352.65	-219.98	2709.4	371.14	-248.69	2700.8	242.92	-276.8	2800.5	91.441	-230.04	2808.3	108.39	-143.83	2603.4	110.56	-47.012	2542.4	94.553	-81.68	2554.3	88.217	-4.1186	2437.1	60.611	-38.118	2450.6	50.086	4.3012	2859.3	97.836	-203.64	2817	72.511	-148.34	2799.7	65.789	-224.85	2689.7	52.022	-167.63	2704	37.826	-225.55
71	0.7	2547	1416.8	-155.99	2607.5	1165.9	-111.7	NaN	NaN	NaN	NaN	NaN	NaN	2510.6	1392.9	69.987	2487.6	1340.9	-336.2	2581	1320.2	-272.14	2476.7	885.64	-39.303	2506.3	904.04	-236.9	2645.9	952.99	-69.471	2655.1	970.39	-141.14	NaN	NaN	NaN	2553.9	985.87	-266.64	2428.3	675.27	34.316	2463	705.33	36.49	2456.4	654.36	39.347	NaN	NaN	NaN	2338.7	492.32	8.658	NaN	NaN	NaN	2620.8	638.35	-269.12	2593.1	666.12	-272.87	2652.4	679.26	-273.88	2623.5	572.74	-300.39	2629.1	453.64	-215.94	NaN	NaN	NaN	2426.9	335.7	28.599	2371.8	362.25	14.835	2420.4	380.37	24.936	2385.3	251.74	46.228	2503.3	108.15	0.26805	2483.6	117.91	-86	2697.2	319.07	-241.3	2664.5	352.27	-219.43	2703.4	371.38	-248.4	2696.8	242.85	-276.65	2799.1	93.011	-230.21	2806.8	110.04	-144	2552.1	100.17	-47.503	2491.7	88.836	-83.38	2501.3	81.559	-5.4752	2383.7	61.619	-41.384	2395.2	50.467	0.68124	2858	100.51	-203.79	2815.8	74.139	-148.71	2799	67.724	-225.14	2689.2	52.114	-167.67	2703.7	37.788	-225.38
72	0.71	2532.7	1415.6	-155.32	2594	1164.4	-110.79	NaN	NaN	NaN	NaN	NaN	NaN	2498.2	1390.3	71.302	2473.2	1338.8	-335.55	2567	1318.9	-271.71	2461.7	884.73	-40.146	2493.6	902.81	-236.7	2631.4	950.94	-68.018	2641.4	968.61	-139.45	NaN	NaN	NaN	2541.7	984.54	-266.21	2409.6	678.11	34.851	2445.9	707.43	37.031	2437.2	655.9	38.64	NaN	NaN	NaN	2315	497.62	8.2365	NaN	NaN	NaN	2611.3	637.45	-268.54	2583.3	664.72	-272.1	2642.6	678.59	-272.91	2614.9	571.86	-299.82	2621.2	452.16	-215.27	NaN	NaN	NaN	2388.7	333.4	27.781	2337.5	364.25	12.61	2386	378.59	25.398	2343	253.93	43.319	2449.7	102.24	-1.0976	2434.5	114.15	-87.642	2691.7	318.9	-240.65	2658.5	351.36	-218.87	2697.2	371.48	-247.81	2692.7	242.78	-276.24	2797.7	94.731	-230.22	2805.3	112.14	-144.1	2501.1	91.202	-47.49	2440.4	84.745	-85.019	2448.3	74.901	-6.8319	2328.4	65.178	-46.787	2339.6	51.625	-4.0879	2856.6	103.23	-203.9	2815.1	76.193	-148.71	2798	69.526	-225.18	2688.8	52.198	-167.67	2703.7	38.05	-225.77
